With: Gretchen Lodge, Johnny Lewis and Alexandra Holden

De pasgetrouwde Molly Reynolds keert terug naar het verlaten huis waar ze geboren is. Vreselijke herinneringen aan haar dramatische kindertijd dringen haar nieuwe leven langzaam binnen. Al snel gaat Molly's geestelijke gezondheid achteruit en het lijkt ze een psychose te hebben. Of zou ze bezeten zijn?.

Newlywed Molly moves into her deceased father's house in the countryside, where painful memories soon begin to haunt her. 
 
http://www.imdb.com/title/tt1707392	

------------------------ Dutch Friends ------------------------
---------------------------------------------------------------
- Bezoek ook eens mijn vrienden op:  http://www.Film-Test.nl --
----- voor mijn Nederlandse Sync. ondertitels ---- en meer ----
------- http://www.Film-Test.nl ---- Over Films en meer -------
---------------------------------------------------------------

General:

Complete name                    : Lovely MollyLovely Molly.avi
Format                           : AVI
Format/Info                      : Audio Video Interleave
File size                        : 1.24 GiB
Duration                         : 1h 36mn
Overall bit rate                 : 1 847 Kbps

Video:

Format                           : MPEG-4 Visual
Format profile                   : Simple@L3
Format settings, BVOP            : No
Format settings, QPel            : No
Format settings, GMC             : No warppoints
Format settings, Matrix          : Default (H.263)
Codec ID                         : XVID
Codec ID/Hint                    : XviD
Duration                         : 1h 36mn
Bit rate                         : 1 388 Kbps
Width                            : 704 pixels
Height                           : 396 pixels
Display aspect ratio             : 16:9
Frame rate                       : 25.000 fps
Color space                      : YUV
Chroma subsampling               : 4:2:0
Bit depth                        : 8 bits
Scan type                        : Progressive
Compression mode                 : Lossy
Bits/(Pixel*Frame)               : 0.199
Stream size                      : 954 MiB (75%)
Writing library                  : XviD 1.1.2 (UTC 2006-11-01)

Audio:

Format                           : AC-3
Format/Info                      : Audio Coding 3
Mode extension                   : CM (complete main)
Codec ID                         : 2000
Duration                         : 1h 36mn
Bit rate mode                    : Constant
Bit rate                         : 448 Kbps
Channel(s)                       : 6 channels
Channel positions                : Front: L C R, Side: L R, LFE
Sampling rate                    : 48.0 KHz
Bit depth                        : 16 bits
Compression mode                 : Lossy
Stream size                      : 308 MiB (24%)
Alignment                        : Aligned on interleaves
Interleave, duration             : 32 ms (0.80 video frame)
Interleave, preload duration     : 256 ms